<?xml version="1.0" standalone="no"?>
<!DOCTYPE svg PUBLIC "-//W3C//DTD SVG 20010904//EN"
 "http://www.w3.org/TR/2001/REC-SVG-20010904/DTD/svg10.dtd">
<svg version="1.0" xmlns="http://www.w3.org/2000/svg"
 width="600.000000pt" height="600.000000pt" viewBox="0 0 600.000000 600.000000"
 preserveAspectRatio="xMidYMid meet">
<metadata>
Created by potrace 1.11, written by Peter Selinger 2001-2013
</metadata>
<g transform="translate(0.000000,600.000000) scale(0.100000,-0.100000)"
fill="#000000" stroke="none">
<path d="M238 5752 c-13 -3 -16 -12 -12 -43 25 -207 29 -556 29 -2699 0 -1929
-4 -2418 -20 -2560 -2 -19 -6 -58 -9 -87 l-4 -52 246 4 c136 2 268 4 295 5 32
0 47 4 47 13 0 26 54 63 192 132 l141 70 1 925 1 925 246 3 245 2 13 53 c32
128 112 272 204 368 103 107 245 175 405 195 50 6 51 5 47 -18 -8 -39 -14 -71
-20 -118 -3 -25 -7 -61 -10 -80 -2 -19 -7 -59 -10 -87 -3 -29 -7 -74 -10 -100
-5 -43 -11 -115 -20 -228 -27 -345 -27 -1091 0 -1300 2 -16 7 -66 10 -109 4
-43 8 -86 10 -95 3 -18 17 -116 20 -146 9 -72 18 -127 28 -174 11 -49 15 -55
48 -66 19 -7 60 -16 91 -19 31 -4 64 -8 74 -10 11 -2 44 -7 74 -11 30 -3 66
-8 80 -10 14 -2 50 -7 80 -10 58 -8 79 -11 121 -20 25 -6 25 -4 73 172 30 110
58 193 74 216 28 41 77 198 107 337 22 103 74 261 98 297 l21 31 371 -4 c207
-2 394 -9 425 -15 256 -50 447 -171 587 -370 44 -63 115 -200 129 -249 8 -30
33 -67 89 -135 23 -27 95 -138 159 -245 65 -107 123 -201 130 -208 10 -10 88
-14 342 -18 181 -3 341 -6 357 -9 15 -2 27 1 27 8 0 11 -101 385 -121 444 -5
18 -12 40 -14 50 -24 112 -45 212 -49 228 -5 21 -43 193 -52 235 -17 86 -25
114 -54 195 -34 95 -89 267 -95 299 -3 10 -9 33 -14 50 -12 36 -79 300 -85
330 -2 12 -12 50 -21 86 -9 36 -19 73 -21 83 -2 9 -6 25 -8 35 -4 14 -58 205
-71 252 -28 98 -88 218 -125 251 l-30 25 39 22 c72 41 143 132 232 302 25 47
64 113 86 148 23 34 45 82 49 105 4 23 8 44 9 47 0 3 4 27 9 53 4 27 9 58 11
69 2 11 7 46 10 79 4 33 8 68 10 78 2 10 6 54 10 97 4 43 8 90 10 104 2 14 7
63 10 110 4 47 8 101 10 120 2 19 6 76 10 125 3 50 8 104 10 120 2 17 7 71 10
120 4 50 9 93 11 96 2 4 6 71 9 150 8 190 11 250 21 399 4 69 7 139 6 157 -3
81 -61 140 -312 315 -36 25 -83 64 -105 87 -112 116 -364 96 -675 -52 -52 -25
-162 -78 -245 -118 -82 -39 -199 -95 -260 -124 -60 -29 -163 -78 -228 -109
-64 -31 -126 -56 -137 -56 -39 0 -117 -33 -180 -78 -130 -91 -148 -101 -193
-114 l-46 -12 6 -68 c4 -59 2 -72 -18 -105 -13 -21 -44 -56 -69 -78 -124 -109
-188 -182 -200 -225 -16 -58 -123 -195 -163 -209 -16 -6 -47 -30 -69 -53 l-38
-41 0 44 c-1 89 -15 282 -25 339 -2 14 -6 43 -10 65 -41 285 -129 530 -249
699 -148 208 -375 331 -645 351 -31 2 -364 5 -741 6 -377 1 -714 5 -750 8 -36
3 -73 5 -82 3z m1541 -796 c287 -48 443 -321 444 -776 1 -97 -9 -248 -18 -272
-2 -7 -6 -29 -9 -48 -6 -42 -45 -171 -56 -185 -4 -5 -11 -21 -15 -35 -23 -76
-137 -200 -222 -244 -105 -53 -131 -55 -624 -56 l-456 0 0 812 0 813 456 -1
c251 0 476 -4 500 -8z m2441 -857 c41 -6 82 -13 90 -14 276 -58 481 -162 545
-278 l27 -48 -7 -202 c-3 -111 -8 -227 -10 -257 -2 -30 -6 -107 -10 -170 -3
-63 -8 -140 -10 -170 -3 -30 -7 -86 -10 -125 -3 -38 -8 -86 -10 -105 -3 -19
-7 -57 -10 -85 -10 -96 -16 -130 -30 -181 -13 -46 -19 -52 -62 -72 -59 -27
-143 -47 -249 -62 -44 -6 -90 -12 -101 -14 -11 -3 -56 -7 -99 -11 -43 -4 -95
-8 -114 -11 -41 -5 -269 -4 -320 1 -19 2 -71 6 -115 9 -137 11 -181 15 -221
20 -22 3 -61 8 -89 11 -27 3 -60 7 -71 9 -12 3 -39 7 -60 10 -61 10 -156 36
-185 51 -33 18 -44 54 -55 180 -16 193 -27 506 -28 815 -1 246 1 279 17 313
68 142 347 284 712 363 24 5 190 32 225 37 42 5 171 -2 250 -14z"/>
</g>
</svg>
