<?xml version="1.0" encoding="utf-8"?>
<!-- Generator: Adobe Illustrator 19.1.0, SVG Export Plug-In . SVG Version: 6.00 Build 0)  -->
<!DOCTYPE svg PUBLIC "-//W3C//DTD SVG 1.1//EN" "http://www.w3.org/Graphics/SVG/1.1/DTD/svg11.dtd">
<svg version="1.1" id="Layer_1" xmlns="http://www.w3.org/2000/svg" xmlns:xlink="http://www.w3.org/1999/xlink" x="0px" y="0px"
	 width="811.2px" height="652.8px" viewBox="0 0 811.2 652.8" style="enable-background:new 0 0 811.2 652.8;" xml:space="preserve"
	>
<style type="text/css">
	.st0{fill:#FFFFFF;}
</style>
<g>
	<path class="st0" d="M592.7,408c14.9,0.2,80.2-5.3,89.6-15c8.6-8.9,13.2-136.8,13.5-153.1c0.5-30.9-66.9-47-99.9-47.3
		c-24.7,0-120.5,20.1-120.5,57.9c0,17.2,1.3,131.3,7.2,141.2C488.8,402.4,578.5,408,592.7,408z M811.2,652.8
		c-6.7-0.5-78.6-1.6-84.9-1.8c-5-7.8-13.6-21.8-26.6-43.3c-2.5-7.6-14.8-16.2-18.1-25.8c-20.7-59.5-69.6-75.5-100.5-75.8l-52.6-0.4
		c-1.8,0-22.5-0.3-24.2-0.3c-11-0.6-22,84.4-30.2,79.9c-5.6,22.9-9.8,33-11.9,45.2c-3.2-3.4-66.1-7.9-68.8-12.3
		c-5.2-30.4-9.3-58.8-11.1-105c-0.9-7.8-0.9-43-0.9-51.6c0-32.6,7.4-148,19.5-167.7c12.9-21.1,33-126.8,58.7-126.8l15.3-19.7
		c0.3-19.4,36.1-31.7,34.7-47.4c-0.2-2.7-0.5-10.6-0.8-13.5c16.9,1,29.3-23.6,51.5-23.3L645,22.6c0-2,11.9-3.8,11.9-5.7
		c39.5-19.7,67.3-20.7,80.6-10.4c8.1,13.7,51.8,30.8,51.5,50.8c-1.7,24.9-2.9,47.1-4.1,77c-3,17.3-9.6,147.5-19.6,158.2
		c-11.5,12.3-22,51.2-45.1,57.8c22.7,8,31,101.3,60.4,177.5c3.2,15.9,6.7,31.9,10.6,48.4C794.6,595.2,804.8,629,811.2,652.8z"/>
	<path class="st0" d="M255.5,328.6c20.9-22.3,31.2-49.2,37.3-86.6c10.5-42.1,9.1-84,1.2-126C280.2,43.2,243.2,3.4,177.9,3.4H64.4
		c-31,0-42.6-0.4-64.1-2c2.8,34.8,4.1,64,4.1,102.1v440.4c0,48.3-1,74.1-4.3,107.5c11.3-0.9,53.5-1.3,69.5-1.3
		c-0.8-8.1,21.4-16.2,40.2-25.4V512v-29.7v-79.4h58.9C168.7,402.9,179.8,328.6,255.5,328.6z M71.3,289.7V95.5h101.3
		c23.3,0,40.3,8.9,51.7,27c9.5,15.1,14.8,39.3,14.8,68.2c0,62.6-24,98.9-66.2,98.9H71.3z"/>
</g>
</svg>
